# xmcd
#
# Track frame offsets:
#	220
#	13724
#	24509
#	36020
#	51745
#	64174
#	86898
#	96540
#	112015
#	122360
#	136763
#	153706
#	162739
#	178039
#	190664
#	202762
#
# Disc length: 2865 seconds
#
# Revision: 1
# Processed by: cddbd v1.4PL0 Copyright (c) Steve Scherf et al.
# Submitted via: audiograbber 1.81.01
#
DISCID=e10b2f10
DTITLE=Shanty-Chor Cuxhaven - Rote Laterne
DYEAR=1900
DGENRE=
TTITLE0=Ahoi, ohe, es muﬂ mehr Rum zum Tee
TTITLE1=Rolling down to old Maui
TTITLE2=The Ebenezer
TTITLE3=Und das weite Meer
TTITLE4=Wolken,Wind und Wogen
TTITLE5=Links um die Ecke gehts nach Amerika
TTITLE6=Ich hab mein Schatz verlorn
TTITLE7=Pechschwarze Augen
TTITLE8=Das Lied von der Hochseekuh
TTITLE9=Hafenharmonika
TTITLE10=Falladoh
TTITLE11=Im Hafen, da leuchtet die rote Laterne
TTITLE12=Rolling sea
TTITLE13=Ein Kom und ein Bier und ein Schifferklavier
TTITLE14=Aloa oe
TTITLE15=Leise kommt die Nacht
EXTD=
EXTT0=
EXTT1=
EXTT2=
EXTT3=
EXTT4=
EXTT5=
EXTT6=
EXTT7=
EXTT8=
EXTT9=
EXTT10=
EXTT11=
EXTT12=
EXTT13=
EXTT14=
EXTT15=
PLAYORDER=
